<svg width="30" height="30" viewBox="0 0 30 30" fill="none" xmlns="http://www.w3.org/2000/svg">
<circle cx="15" cy="15" r="15" fill="#FD7461"/>
<mask id="mask0" mask-type="alpha" maskUnits="userSpaceOnUse" x="4" y="7" width="22" height="16">
<path d="M15 9.14633C13.3536 9.14633 12.0732 7.86584 12.0732 7.86584C12.0732 7.86584 11.7073 7.86584 11.5244 8.04877C11.2818 8.29131 11.3415 8.59755 11.3415 8.59755L4.39023 10.9756L5.67072 15L8.9634 13.9024L9.69511 22.6829H20.3049L21.0366 13.9024L24.3293 15L25.6097 10.9756L18.6585 8.59755C18.6585 8.59755 18.7283 8.30147 18.4756 8.04877C18.2927 7.86584 17.9268 7.86584 17.9268 7.86584C17.9268 7.86584 16.6463 9.14633 15 9.14633Z" fill="white"/>
</mask>
<g mask="url(#mask0)">
<path d="M15 9.14633C13.3536 9.14633 12.0732 7.86584 12.0732 7.86584C12.0732 7.86584 11.7073 7.86584 11.5244 8.04877C11.2818 8.29131 11.3415 8.59755 11.3415 8.59755L4.39023 10.9756L5.67072 15L8.9634 13.9024L9.69511 22.6829H20.3049L21.0366 13.9024L24.3293 15L25.6097 10.9756L18.6585 8.59755C18.6585 8.59755 18.7283 8.30147 18.4756 8.04877C18.2927 7.86584 17.9268 7.86584 17.9268 7.86584C17.9268 7.86584 16.6463 9.14633 15 9.14633Z" fill="white"/>
<path fill-rule="evenodd" clip-rule="evenodd" d="M19.6403 6.21951C19.6403 8.3411 17.5628 10.061 15 10.061C12.4372 10.061 10.3597 8.3411 10.3597 6.21951C10.3597 4.09793 12.4372 2.37805 15 2.37805C17.5628 2.37805 19.6403 4.09793 19.6403 6.21951ZM26.2463 10.9842L24.6083 10.4268L22.9703 15.5401L24.7912 16.0976L26.2463 10.9842ZM5.30493 10.4268L3.66699 10.9842L5.12203 16.0976L6.94294 15.5401L5.30493 10.4268Z" fill="#326399"/>
</g>
</svg>
