<svg width="19" height="17" viewBox="0 0 19 17" fill="none" xmlns="http://www.w3.org/2000/svg">
<path fill-rule="evenodd" clip-rule="evenodd" d="M8.03107 1.39775C8.43034 0.327271 9.6154 -0.20021 10.678 0.219592C11.7406 0.639394 12.2783 1.84751 11.8791 2.91799L7.49202 14.6803C7.09276 15.7508 5.90769 16.2783 4.84509 15.8585C3.78249 15.4387 3.24476 14.2306 3.64402 13.1601L8.03107 1.39775ZM14.0302 1.39775C14.4295 0.327271 15.6145 -0.200208 16.6771 0.219596C17.7397 0.6394 18.2775 1.84752 17.8782 2.918L13.4912 14.6804C13.0919 15.7509 11.9068 16.2783 10.8442 15.8585C9.78165 15.4387 9.24391 14.2306 9.64317 13.1601L14.0302 1.39775ZM2.11371 10.2248C3.28108 10.2248 4.22742 9.25078 4.22742 8.04926C4.22742 6.84774 3.28108 5.87372 2.11371 5.87372C0.946341 5.87372 0 6.84774 0 8.04926C0 9.25078 0.946341 10.2248 2.11371 10.2248Z" fill="#222222"/>
<ellipse cx="2.11371" cy="2.17554" rx="2.11371" ry="2.17554" fill="#D20000"/>
</svg>
