<svg width="30" height="30" viewBox="0 0 30 30" fill="none" xmlns="http://www.w3.org/2000/svg">
<circle cx="15" cy="15" r="15" fill="#38ACFF"/>
<path d="M5.99992 8.01695C5.99992 7.40678 6.38702 7 6.96767 7H23.0322C23.6128 7 23.9999 7.40678 23.9999 8.01695V19H5.99992V8.01695Z" fill="url(#paint0_linear)"/>
<mask id="mask0" mask-type="alpha" maskUnits="userSpaceOnUse" x="7" y="8" width="16" height="10">
<path d="M7.5 8.81561C7.5 8.6582 7.67241 8.50079 7.84483 8.50079H22.1552C22.3276 8.50079 22.5 8.6582 22.5 8.81561C22.5 8.81561 22.5 13.5884 22.5 16.6466C22.5 16.8237 22.3213 17.0008 22.1552 17.0008C16.5666 17.0008 13.4334 17.0008 7.84483 17.0008C7.67857 17.0008 7.5 16.8389 7.5 16.6466C7.50001 14.4331 7.5 8.81561 7.5 8.81561Z" fill="#C4C4C4"/>
</mask>
<g mask="url(#mask0)">
<rect x="6" y="7.00079" width="18" height="11.9989" fill="#53F11B" stroke="black" stroke-width="3"/>
<ellipse rx="18.976" ry="18.6738" transform="matrix(-1 0 0 1 6.74567 6.90168)" fill="url(#paint1_radial)"/>
</g>
<rect opacity="0.1" x="6" y="18" width="18" height="1" fill="black"/>
<path d="M25 20.2C25 20.6 24.604 21 24.2079 21L5.79208 21C5.39604 21 5 20.6 5 20.2L5 19.2C5 19.1 5.09901 19 5.19802 19L24.802 19C24.901 19 25 19.1 25 19.2V20.2Z" fill="white"/>
<defs>
<linearGradient id="paint0_linear" x1="14.9339" y1="7" x2="14.827" y2="18.9999" gradientUnits="userSpaceOnUse">
<stop offset="0.572564" stop-color="white"/>
<stop offset="0.95332" stop-color="#EEEEEE"/>
<stop offset="1" stop-color="#E6E6E6"/>
</linearGradient>
<radialGradient id="paint1_radial" cx="0" cy="0" r="1" gradientUnits="userSpaceOnUse" gradientTransform="translate(18.976 18.6738) rotate(90) scale(18.6738 18.976)">
<stop stop-color="#1BD8F1"/>
<stop offset="1" stop-color="#1BD8F1" stop-opacity="0"/>
</radialGradient>
</defs>
</svg>
