<svg width="50" height="44" viewBox="0 0 50 44" fill="none" xmlns="http://www.w3.org/2000/svg">
<path d="M6 1C3.23858 1 1 3.23858 1 6V38C1 40.7614 3.23858 43 6 43H27.3333C38.9313 43 48.3333 33.598 48.3333 22C48.3333 10.402 38.9313 1 27.3333 1H6Z" stroke="#808080" stroke-width="2"/>
<path opacity="0.1" d="M16 2H18L20.4688 21.7501C20.5845 22.6763 21.3256 23.3992 22.2543 23.4921L47.3333 26V28H16L16 2Z" fill="black"/>
<mask id="path-3-outside-1" maskUnits="userSpaceOnUse" x="15" y="28" width="33" height="15" fill="black">
<rect fill="white" x="15" y="28" width="33" height="15"/>
<path d="M16 42L16 29C16 29 34.9711 29 46 29C44.5569 32.9572 38.6667 42 27.3333 42C17.4401 42 16 42 16 42Z"/>
</mask>
<path d="M16 42L15 42L15 43L16 43L16 42ZM16 29L16 28L15 28L15 29L16 29ZM46 29L46.9395 29.3426L47.4291 28L46 28L46 29ZM27.3333 42L27.3333 43L27.3333 42ZM17 42L17 29L15 29L15 42L17 42ZM16 29C16 30 16.0001 30 16.0002 30C16.0004 30 16.0006 30 16.0009 30C16.0014 30 16.0023 30 16.0035 30C16.0058 30 16.0092 30 16.0138 30C16.023 30 16.0366 30 16.0548 30C16.091 30 16.1449 30 16.2157 30C16.3574 30 16.5666 30 16.8367 30C17.377 30 18.1611 30 19.1366 30C21.0874 30 23.8035 30 26.8641 30C32.9855 30 40.4855 30 46 30L46 28C40.4855 28 32.9855 28 26.8641 28C23.8035 28 21.0874 28 19.1366 28C18.1611 28 17.377 28 16.8367 28C16.5666 28 16.3574 28 16.2157 28C16.1449 28 16.091 28 16.0548 28C16.0366 28 16.023 28 16.0138 28C16.0093 28 16.0057 28 16.0035 28C16.0023 28 16.0014 28 16.0009 28C16.0006 28 16.0004 28 16.0002 28C16.0001 28 16 28 16 29ZM45.0605 28.6574C43.6883 32.4203 38.0671 41 27.3333 41L27.3333 43C39.2662 43 45.4255 33.4941 46.9395 29.3426L45.0605 28.6574ZM27.3333 41C22.3867 41 19.5534 41 17.9567 41C17.1583 41 16.6692 41 16.3796 41C16.2348 41 16.1399 41 16.0812 41C16.0518 41 16.0315 41 16.0186 41C16.0121 41 16.0075 41 16.0044 41C16.0029 41 16.0018 41 16.0011 41C16.0007 41 16.0004 41 16.0003 41C16.0002 41 16.0001 41 16.0001 41C16 41 16 41 16 41C16 41 16 41 16 42C16 43 16 43 16 43C16 43 16.0001 43 16.0001 43C16.0001 43 16.0002 43 16.0003 43C16.0005 43 16.0007 43 16.0011 43C16.0018 43 16.0029 43 16.0044 43C16.0075 43 16.0121 43 16.0186 43C16.0316 43 16.0519 43 16.0812 43C16.1399 43 16.2348 43 16.3796 43C16.6692 43 17.1584 43 17.9567 43C19.5534 43 22.3867 43 27.3333 43L27.3333 41Z" fill="#808080" mask="url(#path-3-outside-1)"/>
<path d="M15.5 2V1.5H15H6C3.51472 1.5 1.5 3.51472 1.5 6V38C1.5 40.4853 3.51472 42.5 6 42.5H15H15.5V42V2Z" stroke="#808080"/>
</svg>
