<svg width="30" height="30" viewBox="0 0 30 30" fill="none" xmlns="http://www.w3.org/2000/svg">
<circle cx="15" cy="15" r="15" fill="#87DC53"/>
<path fill-rule="evenodd" clip-rule="evenodd" d="M20.1297 8.18538L17.9929 6.9517L17.8559 7.18912C17.627 7.58546 17.0674 7.7908 16.8886 7.84787C13.5847 6.90819 9.94139 8.28641 8.14578 11.3965C6.02603 15.068 7.28399 19.7627 10.9555 21.8825C14.627 24.0022 19.3217 22.7443 21.4415 19.0728C23.298 15.8572 22.5636 11.8568 19.8861 9.48877C19.8435 9.24322 19.7964 8.76276 19.9927 8.42281L20.1297 8.18538ZM19.7368 18.0886C18.1606 20.8187 14.6696 21.7541 11.9395 20.1778C9.20945 18.6016 8.27405 15.1107 9.85027 12.3806C11.4265 9.65048 14.9175 8.71508 17.6475 10.2913C20.3776 11.8675 21.313 15.3585 19.7368 18.0886Z" fill="#FDFF93"/>
<path d="M19.5927 2.81027L22.9166 4.72934L23.0622 6.39622L20.1298 8.18542L17.993 6.95173L18.0763 3.51762L19.5927 2.81027Z" fill="#EC0000"/>
<path d="M19.7384 4.47713L19.5928 2.81024L21.2547 3.76978L19.7384 4.47713Z" fill="white"/>
<path opacity="0.2" d="M19.5361 7.84267L21.4001 5.43663L23.062 6.39617L20.1297 8.18536L19.5361 7.84267Z" fill="black"/>
<path d="M18.5866 7.29438L19.7383 4.47711L21.4002 5.43665L19.5363 7.84269L18.5866 7.29438Z" fill="#FF5555"/>
<path d="M21.4002 5.4366L21.2546 3.76971L22.9166 4.72925L21.4002 5.4366Z" fill="#FF5555"/>
<path opacity="0.6" d="M19.5927 2.81023L19.7383 4.47711L18.0763 3.51758L19.5927 2.81023Z" fill="white"/>
<path opacity="0.6" d="M21.255 3.76976L21.4006 5.43665L19.7387 4.47711L21.255 3.76976Z" fill="white"/>
</svg>
