<svg width="72" height="64" viewBox="0 0 72 64" fill="none" xmlns="http://www.w3.org/2000/svg">
<path d="M8 1C4.13401 1 1 4.13401 1 8V56C1 59.866 4.13401 63 8 63H40C57.1208 63 71 49.1208 71 32C71 14.8792 57.1208 1 40 1H8Z" fill="#D5FFE0" stroke="black" stroke-width="2"/>
<path opacity="0.2" d="M14 2H26L29.8021 32.4168C29.9179 33.3429 30.6589 34.0659 31.5876 34.1588L70 38V44H14V2Z" fill="black"/>
<mask id="path-3-outside-1" maskUnits="userSpaceOnUse" x="1" y="41" width="69" height="22" fill="black">
<rect fill="white" x="1" y="41" width="69" height="22"/>
<path d="M4.99974 62C3.34289 62 2 60.6569 2 59L2 42C2 42 51.6573 42 68.2007 42C66.036 47.9358 57 62 40 62C28.4089 62 11.7419 62 4.99974 62Z"/>
</mask>
<path d="M4.99974 62C3.34289 62 2 60.6569 2 59L2 42C2 42 51.6573 42 68.2007 42C66.036 47.9358 57 62 40 62C28.4089 62 11.7419 62 4.99974 62Z" fill="#9AD0F8"/>
<path d="M2 42L2 41L1 41L1 42L2 42ZM68.2007 42L69.1402 42.3426L69.6298 41L68.2007 41L68.2007 42ZM40 62L40 63L40 62ZM3 59L3 42L1 42L1 59L3 59ZM2 42C2 43 2.00019 43 2.00057 43C2.00095 43 2.00151 43 2.00227 43C2.00349 43 2.00633 43 2.00905 43C2.01456 43 2.0246 43 2.03605 43C2.06001 43 2.0957 43 2.14295 43C2.23738 43 2.37788 43 2.56171 43C2.92945 43 3.47097 43 4.16602 43C5.55615 43 7.56051 43 10.0174 43C14.9313 43 21.6555 43 28.8966 43C43.3788 43 59.929 43 68.2007 43L68.2007 41C59.929 41 43.3788 41 28.8966 41C21.6555 41 14.9313 41 10.0174 41C7.56051 41 5.55615 41 4.16602 41C3.47097 41 2.92945 41 2.56171 41C2.37778 41 2.23748 41 2.14295 41C2.09592 41 2.05979 41 2.03605 41C2.02415 41 2.01502 41 2.00905 41C2.00518 41 2.00464 41 2.00227 41C2.00151 41 2.00095 41 2.00057 41C2.00019 41 2 41 2 42ZM67.2612 41.6574C66.2303 44.4843 63.5169 49.3456 58.9886 53.4881C54.4777 57.6147 48.2 61 40 61L40 63C48.8 63 55.5403 59.3532 60.3386 54.9638C65.1195 50.5902 68.0064 45.4515 69.1402 42.3426L67.2612 41.6574ZM40 61C28.4089 61 11.7419 61 4.99974 61L4.99975 63C11.7419 63 28.4089 63 40 63L40 61ZM1 59C1 61.209 2.79049 63 4.99975 63L4.99974 61C3.89529 61 3 60.1047 3 59L1 59Z" fill="black" mask="url(#path-3-outside-1)"/>
<path d="M22.5 2V1.5H22H8C4.41015 1.5 1.5 4.41015 1.5 8V56C1.5 59.5899 4.41015 62.5 8 62.5H22H22.5V62V2Z" fill="#FFCC00" stroke="black"/>
</svg>
