<svg width="170" height="170" viewBox="0 0 170 170" fill="none" xmlns="http://www.w3.org/2000/svg">
<mask id="mask0" mask-type="alpha" maskUnits="userSpaceOnUse" x="0" y="0" width="170" height="170">
<circle cx="85" cy="85" r="85" fill="#C4C4C4"/>
</mask>
<g mask="url(#mask0)">
<circle cx="85" cy="85" r="80" fill="#A1E3B2"/>
<circle cx="85" cy="85" r="65" fill="#78C28B"/>
<path d="M27.448 73.9999L30.8837 73.0028C30.8837 73.0028 41.3836 63.4616 44.0536 62.1233C47.8466 60.2221 54.9331 58.6877 54.9331 58.6877C54.9331 58.6877 58.9444 53.1913 60.6592 53.5342C62.0907 53.8205 64.0638 56.6604 62.9496 59.2603C62.0907 61.2644 59.6963 63.4666 57.2236 65.5589C53.7986 68.457 55.5777 66.8612 53 68.5C59.5 70 73 69 81 69.5C84.4195 69.5 86.9494 72.9588 84.275 74.8844C82.6477 76.0559 73.7972 76.1217 72.4733 76.5C74.9733 76.5 87.2662 76 88.5 76.5C91.4552 77.6977 91 83 87 83.5C90 85 89.2729 89.0816 87.5 90.5C85 92.5 70 93 68 93C68 93 79 94 83 96C84.7981 96.899 84.8453 100.5 78 100.5C71.1547 100.5 57.5 99.4999 57.5 99.4999L38.5 99.9999C35.5 99.9999 32.6452 99.1452 31.5 98C29.6489 97.5541 28.5 97.4999 28.5 97.4999L27.448 73.9999Z" fill="#E9A66F"/>
<path d="M27.448 73.9999C27.448 73.9999 30.0526 73.0635 30.8761 73.0169C30.8761 75.1856 31.8649 77.0393 32.7765 78.5415C33.8763 80.3535 36.1747 79.7536 37.9917 79.116C40.511 78.2321 43.2511 77.6575 46.1255 74.2578C47.6521 72.4523 49.0055 62.731 49.0055 60.2441C49.7404 59.9624 51.0511 59.6806 51.0511 59.6806C51.0511 59.6806 59.6963 63.4666 57.2236 65.5589C53.7986 68.457 55.5777 66.8612 53 68.5C59.5 70 73 69 81 69.5C84.4195 69.5 86.9494 72.9588 84.275 74.8844C82.6477 76.0559 73.7972 76.1217 72.4733 76.5C74.9733 76.5 87.2662 76 88.5 76.5C91.4552 77.6977 91 83 87 83.5C90 85 89.2729 89.0816 87.5 90.5C85 92.5 70 93 68 93C68 93 79 94 83 96C84.7981 96.899 84.8453 100.5 78 100.5C71.1547 100.5 57.5 99.4999 57.5 99.4999L38.5 99.9999C35.5 99.9999 32.6452 99.1452 31.5 98C29.6489 97.5541 28.5 97.4999 28.5 97.4999L27.448 73.9999Z" fill="#D7955F"/>
<path d="M22.0292 74.9476C22.0021 74.4095 22.4061 73.9467 22.9429 73.9009L26.9043 73.5629C27.4799 73.5138 27.9773 73.9612 27.9891 74.5388L28.3291 91.1229C28.3391 91.6064 28.0015 92.0278 27.5274 92.1235L24.0797 92.8201C23.4804 92.9412 22.9137 92.5009 22.8829 91.8902L22.0292 74.9476Z" fill="#F4F4F4"/>
<path d="M-1.5 75.5L22.4838 73.8375L23.0045 101.97L-8 103.5L-1.5 75.5Z" fill="#001D30"/>
<path d="M122 89.5L149 129C149 129 149.499 129 149.789 128.709C150.048 128.451 150.074 128.07 150.074 127.941C150.074 98.9115 150 52 150 52L141.792 41.3883L122 89.5Z" fill="#DCC368"/>
<path d="M49.1045 113.574C48.6396 112.912 49.1136 112 49.9231 112H138.553C138.879 112 139.185 112.159 139.372 112.426L149.896 127.426C150.36 128.088 149.886 129 149.077 129H60.4466C60.1206 129 59.8152 128.841 59.628 128.574L49.1045 113.574Z" fill="#BEA54D"/>
<rect x="51.4664" y="41.5" width="90.0336" height="74" rx="0.5" fill="#FBE289" stroke="#DCC268"/>
<g style="mix-blend-mode:multiply">
<path d="M95.9759 129H116L106.024 116H86L95.9759 129Z" fill="#FF6B00"/>
</g>
<rect x="125.42" y="62.2341" width="29.0486" height="51.0882" rx="2.5" transform="rotate(82.5469 125.42 62.2341)" fill="white" stroke="#DCC268"/>
<path d="M100.5 70C99.1193 70 98 71.567 98 73.5C98 75.433 99.1193 77 100.5 77C101.881 77 103 75.433 103 73.5C103 71.567 101.881 70 100.5 70Z" fill="#CCCCCC"/>
<path d="M111.5 70C110.119 70 109 71.567 109 73.5C109 75.433 110.119 77 111.5 77C112.881 77 114 75.433 114 73.5C114 71.567 112.881 70 111.5 70Z" fill="#CCCCCC"/>
<path d="M117.717 78.0147C117.498 77.9636 117.28 78.0488 117.108 78.219C114.268 81.1305 109.867 82.6969 106.558 82.6969L105.997 82.6969L105.435 82.6969C102.126 82.6969 97.7255 81.1305 94.8853 78.219C94.7292 78.0488 94.4951 77.9807 94.2766 78.0147C94.0426 78.0658 93.9333 78.3382 94.0426 78.5596C96.4771 83.1566 100.972 86 105.856 86L105.997 86L106.137 86C111.022 86 115.516 83.1566 117.951 78.5596C118.076 78.3552 117.951 78.0658 117.717 78.0147Z" fill="#CCCCCC"/>
<rect x="86" y="41" width="20" height="75" fill="#FF6B00"/>
<mask id="mask1" mask-type="alpha" maskUnits="userSpaceOnUse" x="26" y="71" width="64" height="48">
<path d="M26.448 92L29.8837 91.0028C29.8837 91.0028 40.3837 81.4616 43.0536 80.1233C46.8466 78.2221 53.9331 76.6877 53.9331 76.6877C53.9331 76.6877 57.9444 71.1913 59.6592 71.5342C61.0907 71.8206 63.0639 74.6604 61.9496 77.2603C61.0907 79.2644 58.6963 81.4667 56.2236 83.559C52.7986 86.457 54.5777 84.8613 52 86.5C58.5 88 72.4848 86.4548 80.8434 86.1437C85.5394 85.6406 86.278 89.9544 83.3814 91.4854C80.4849 93.0165 61.483 93.8996 61.0674 94.5526C61.3643 95.4431 66.3314 95.4187 69.9126 95.4431C77.3923 95.0869 85.1993 94.8009 87.4841 95.4431C90.5539 96.3058 90 101.295 86 101.795C89 103.295 87.5659 106.463 85.4064 106.96C82.4212 107.646 72.2116 109.31 64.8073 109.69C61.5245 109.859 61.1585 110.481 61.3869 110.903C61.6153 111.326 76.8296 111.458 80.8434 113.237C82.6813 114.052 83.398 118.634 78.0839 118.551C72.7698 118.467 64.9387 117.574 56.5 117.5C48.3705 119.607 37.9927 117.879 37.9927 117.879C33.0424 117.879 30.904 116.072 29.7588 114.927C27.9077 114.481 27.5 115.5 27.5 115.5L26.448 92Z" fill="#FFBC85"/>
</mask>
<g mask="url(#mask1)">
<rect x="-5.75226" y="53.5021" width="122.171" height="81.8424" fill="#FFBC85"/>
<path d="M60.9556 109.421C64.3322 109.08 73.1115 108.573 74.1472 107.018C75.8723 104.428 74.5876 103.888 78.5239 103.253C79.4612 103.102 80.6069 102.838 82.1346 102.838C83.6624 102.838 85.2671 102.677 87.4853 102.307L89.0207 103.888L90.9105 107.018L81.8462 122.577C81.8462 122.577 49.2658 125.874 56.017 117.882C59.7997 113.404 58.5539 109.663 60.9556 109.421Z" fill="#E9A66F" fill-opacity="0.8"/>
<path d="M63.6047 92.9496C69.1047 92.4496 72.1383 92.2067 77.5403 91.3756C78.7841 91.1842 76.8593 89.7643 79.065 87.8084C82.103 86.0605 82 89 84.5878 87.1854C84.5878 87.1854 87.4501 92.088 82.3883 93.1337C79.0225 93.4208 76.9098 93.6225 72.0436 94.0095C65.8781 94.5 61 94.5 61 94.5C61 94.5 60.196 93.2595 63.6047 92.9496Z" fill="#E9A66F"/>
<path d="M63.9167 101.143C68.6682 101.143 76.0608 100.851 80.5087 100.544C82.8953 100.379 80.5517 99.3687 82.5877 97.1853C84.6237 95.0019 87.1059 96.7162 87.5 98.5C92 98.5 90 101.5 90 101.5L85.9958 101.803C85.9958 101.803 83.3385 101.74 78.6219 102.081C73.9052 102.422 70.3892 102.83 65.933 102.734C63.004 102.672 63.2177 102.734 61.4779 102.734C60.1985 102.734 60.0786 101.143 63.9167 101.143Z" fill="#E9A66F"/>
<path d="M83.9391 88.9046C84.0501 90.2131 82.68 91.0154 81.4501 91.0154C80.2202 91.0154 78.6762 90.3558 78.6762 89.2678C78.6762 88.1798 80.3583 86.976 81.5882 86.976C82.8182 86.976 83.8281 87.5961 83.9391 88.9046Z" fill="#FFD5A7"/>
<path d="M88.452 98.52C88.452 99.9107 87.1226 100.614 85.8927 100.614C84.6627 100.614 82.5749 100.07 82.5189 98.52C82.4607 96.9077 84.7791 96.3096 86.009 96.3096C87.2389 96.3096 88.452 97.1292 88.452 98.52Z" fill="#FFD5A7"/>
<path d="M86.6628 103.845C86.9883 105.384 85.9696 106.159 84.7686 106.331C83.2791 106.544 81.8427 106.054 81.6314 104.792C81.4723 103.841 82.7468 102.763 84.1767 102.572C85.5079 102.394 86.3372 102.306 86.6628 103.845Z" fill="#FFD5A7"/>
<path d="M81.4291 115.77C81.4291 117.161 80.4321 117.74 79.2022 117.74C77.9722 117.74 76.3279 116.742 76.3279 115.654C76.3279 114.566 77.8136 113.597 79.2022 113.739C80.3733 113.858 81.4291 114.379 81.4291 115.77Z" fill="#FFD5A7"/>
</g>
<path d="M59.2291 73.1641C58.6187 74.9415 54.143 76.9809 54.1484 76.3867C54.1538 75.7924 55.9581 73.4316 57.757 71.665C58.3424 71.0901 59.4957 72.3881 59.2291 73.1641Z" fill="#FFD5A7"/>
<path d="M23.0334 92.4972C23.0133 91.966 23.4122 91.512 23.9415 91.4635L27.9486 91.0963C28.5198 91.044 29.0179 91.4819 29.0391 92.0552L29.9616 116.963C29.9826 117.529 29.5291 118 28.9623 118H24.9628C24.4253 118 23.9839 117.575 23.9636 117.038L23.0334 92.4972Z" fill="white"/>
<path d="M-0.5 93.5L23.5 91.5L24.5 120.5L3 121.5L-0.5 93.5Z" fill="#033C62"/>
</g>
</svg>
