<svg width="170" height="170" viewBox="0 0 170 170" fill="none" xmlns="http://www.w3.org/2000/svg">
<mask id="mask0" mask-type="alpha" maskUnits="userSpaceOnUse" x="0" y="0" width="170" height="170">
<circle cx="85" cy="85" r="85" fill="#C4C4C4"/>
</mask>
<g mask="url(#mask0)">
<circle opacity="0.7" cx="85" cy="85" r="80" fill="#FF6B00"/>
<circle cx="85" cy="85" r="65" fill="#FF6B00"/>
<rect x="41.5" y="44.5" width="89" height="64" rx="3.5" fill="black" stroke="#F4F4F4"/>
<rect x="48" y="50" width="76" height="53" rx="2" fill="#D5FFE0"/>
<rect x="61" y="67" width="50" height="20" rx="10" fill="#14BD5B"/>
<path d="M71.7523 76L75.7523 80L82.2523 73.5" stroke="white" stroke-width="2"/>
<path d="M26.5 109L28.5 106.5C28.5 106.5 29.3372 89 30.5 85.5C32.1519 80.5278 37 73 37 73C37 73 35.7032 64.6979 37.5 63.5C39 62.5 43.2027 63.2569 44.5 66.5C45.5 69 45.3322 73.0138 45 77C44.5399 82.5212 41.8199 86.3182 41 90C41 93 41 99.4177 41 105C41 107.5 43 109 45 109H63C63 109 60.4108 117.639 56 120.5C53.0972 122.383 49.5 123 47.5 123C45.4943 124.227 43 127 43 127L26.5 109Z" fill="#FFBC85"/>
<path d="M105.5 134.5C105.5 134.5 95.319 128.032 93.5 125C92.4062 123.177 91.4024 121.354 90.4385 119.604C88.7588 116.553 87.2006 113.724 85.5 111.5C83.6895 109.132 83.5 107 83.5 107C83.5 107 79.326 102.5 80 101C82.2466 96 87 100.5 87 100.5L83.5 82.5C83.5 82.5 82 77.5714 86 77C89.5001 76.5 90 81.5 90 81.5L93.5 93.5L95.5 102.5C95.5 102.5 95.9756 99.1724 97.5 98C98.7763 97.0184 100.413 96.7261 102 97C104.045 97.3531 105.5 100.5 105.5 100.5C105.5 100.5 105.98 97.42 108.5 97C111.5 96.5 113 100 113 100C113 100 113 97 116 97C119.5 97 120 98.5 121.5 101C122.449 102.582 123.838 108.407 124.832 112.573C125.409 114.993 125.853 116.853 126 117C126.217 117.217 126.839 119.217 127.575 121.587C128.193 123.576 128.891 125.826 129.5 127.5L105.5 134.5Z" fill="#FFBC85"/>
<path d="M93.5 125C92.4062 123.177 91.4023 121.354 90.4385 119.604C88.7588 116.553 87.2006 113.724 85.5 111.5C83.6894 109.132 83.5 107 83.5 107C83.5 107 79.326 102.5 80 101C82.2466 96 87 100.5 87 100.5C88 107.5 90.4385 114 93.5 125Z" fill="#E9A66F"/>
<path d="M88.8532 79.6822C89.0982 81.3209 88.2637 83.3092 86.8981 83.5134C85.5326 83.7175 84.1531 82.0601 83.9082 80.4214C83.6632 78.7828 84.6456 77.7834 86.0111 77.5793C87.3766 77.3752 88.6083 78.0436 88.8532 79.6822Z" fill="#FFEDAD"/>
<path d="M38.5 65C39.5 67 37.5 72.5 37 72C36.5 71.5 36 68 36 65C36 64.0237 38.0634 64.1268 38.5 65Z" fill="#FFEDAD"/>
<path d="M81.6515 100.995C83.4595 102.31 84.1125 107.751 83.6125 107.751C83.1125 107.751 80.8121 104.808 79.4318 102.145C78.9826 101.278 80.8621 100.42 81.6515 100.995Z" fill="#EFC89B"/>
<path d="M8.51679 127.137C8.21634 126.767 8.21919 126.236 8.5236 125.869L24.3455 106.789C24.7043 106.357 25.3491 106.305 25.7726 106.674L47.815 125.902C48.2034 126.241 48.2707 126.82 47.9703 127.239L30.2636 151.935C29.8792 152.471 29.09 152.495 28.6743 151.982L8.51679 127.137Z" fill="white"/>
<path d="M142.282 151.441C142.697 151.186 142.868 150.67 142.687 150.217L132.361 124.403C132.16 123.9 131.595 123.649 131.087 123.836L104.398 133.669C103.896 133.854 103.628 134.402 103.791 134.911L114.112 167.283C114.309 167.902 115.035 168.172 115.588 167.832L142.282 151.441Z" fill="white"/>
</g>
</svg>
