<svg width="170" height="170" viewBox="0 0 170 170" fill="none" xmlns="http://www.w3.org/2000/svg">
<mask id="mask0" mask-type="alpha" maskUnits="userSpaceOnUse" x="0" y="0" width="170" height="170">
<circle cx="85" cy="85" r="85" fill="#C4C4C4"/>
</mask>
<g mask="url(#mask0)">
<circle opacity="0.7" cx="85" cy="85" r="80" fill="#9AD0F8"/>
<circle cx="85" cy="85" r="65" fill="#9AD0F8"/>
<path fill-rule="evenodd" clip-rule="evenodd" d="M111 19C111.552 19 112 18.5523 112 18H114V46H72V18H74C74 18.5523 74.4477 19 75 19C75.5523 19 76 18.5523 76 18H78C78 18.5523 78.4477 19 79 19C79.5523 19 80 18.5523 80 18H82C82 18.5523 82.4477 19 83 19C83.5523 19 84 18.5523 84 18H86C86 18.5523 86.4477 19 87 19C87.5523 19 88 18.5523 88 18H90C90 18.5523 90.4477 19 91 19C91.5523 19 92 18.5523 92 18H94C94 18.5523 94.4477 19 95 19C95.5523 19 96 18.5523 96 18H98C98 18.5523 98.4477 19 99 19C99.5523 19 100 18.5523 100 18H102C102 18.5523 102.448 19 103 19C103.552 19 104 18.5523 104 18H106C106 18.5523 106.448 19 107 19C107.552 19 108 18.5523 108 18H110C110 18.5523 110.448 19 111 19Z" fill="white"/>
<path d="M87.5 25C86.1193 25 85 26.567 85 28.5C85 30.433 86.1193 32 87.5 32C88.8807 32 90 30.433 90 28.5C90 26.567 88.8807 25 87.5 25Z" fill="#CCCCCC"/>
<path d="M98.5 25C97.1193 25 96 26.567 96 28.5C96 30.433 97.1193 32 98.5 32C99.8807 32 101 30.433 101 28.5C101 26.567 99.8807 25 98.5 25Z" fill="#CCCCCC"/>
<path d="M104.717 33.0147C104.498 32.9636 104.28 33.0488 104.108 33.219C101.268 36.1305 96.8669 37.6969 93.5585 37.6969L92.9966 37.6969L92.4348 37.6969C89.1264 37.6969 84.7255 36.1305 81.8853 33.219C81.7292 33.0488 81.4951 32.9807 81.2766 33.0147C81.0426 33.0658 80.9333 33.3382 81.0426 33.5596C83.4771 38.1566 87.9716 41 92.8562 41L92.9966 41L93.1371 41C98.0217 41 102.516 38.1566 104.951 33.5596C105.076 33.3552 104.951 33.0658 104.717 33.0147Z" fill="#CCCCCC"/>
<rect x="68" y="47" width="50" height="82" rx="3" fill="#002843" stroke="#16629A" stroke-width="2"/>
<rect x="72" y="51" width="42" height="10" rx="1" fill="#D5FFE0"/>
<rect x="72" y="43" width="42" height="3" fill="#F4F4F4"/>
<rect opacity="0.7" x="102" y="106" width="11" height="16" rx="2" fill="white"/>
<rect opacity="0.5" x="102" y="97" width="11" height="7" rx="2" fill="white"/>
<rect opacity="0.5" x="102" y="88" width="11" height="7" rx="2" fill="white"/>
<rect opacity="0.5" x="102" y="79" width="11" height="7" rx="2" fill="white"/>
<rect opacity="0.5" x="102" y="70" width="11" height="7" rx="2" fill="white"/>
<g opacity="0.5">
<rect x="89" y="115" width="11" height="7" rx="2" fill="#F4F4F4"/>
<rect x="89" y="106" width="11" height="7" rx="2" fill="#F4F4F4"/>
<rect x="89" y="97" width="11" height="7" rx="2" fill="#F4F4F4"/>
<rect x="89" y="88" width="11" height="7" rx="2" fill="#F4F4F4"/>
<rect x="89" y="79" width="11" height="7" rx="2" fill="#F4F4F4"/>
<rect x="89" y="70" width="11" height="7" rx="2" fill="#F4F4F4"/>
</g>
<rect opacity="0.3" x="85" y="73" width="16" height="55" rx="4" fill="#002843"/>
<rect x="53" y="63" width="38" height="72" rx="3" fill="black"/>
<rect x="55" y="65" width="34" height="65" rx="2" fill="#E6F7FF"/>
<path d="M38.5 124L40.5 121.5C40.5 121.5 41.3372 104 42.5 100.5C44.1519 95.5278 49 88 49 88C49 88 47.7032 79.6979 49.5 78.5C51 77.5 55.2027 78.2569 56.5 81.5C57.5 84 57.3322 88.0138 57 92C56.5399 97.5212 53.8199 101.318 53 105C53 108 53 125.418 53 131C53 133.5 55 135 57 135H68.5L68 135.5C65.0972 137.383 61.5 138 59.5 138C57.4943 139.227 55 142 55 142L38.5 124Z" fill="#FFBC85"/>
<path d="M95 109C95 111.761 93.4546 114 91 114C88.5454 114 87 112.333 87 109C87 105.822 88.5454 104 91 104C93.4546 104 95 106.239 95 109Z" fill="#FFBC85"/>
<path d="M95 121.5C95 123.985 93.4546 126 91 126C88.5454 126 87 124.5 87 121.5C87 118.64 88.5454 117 91 117C93.4546 117 95 119.015 95 121.5Z" fill="#E9A66F"/>
<path d="M96 97.5C96 100.538 94.2614 103 91.5 103C88.7386 103 87 101.167 87 97.5C87 94.0041 88.7386 92 91.5 92C94.2614 92 96 94.4624 96 97.5Z" fill="#FFBC85"/>
<path d="M96 86C96 88.7614 94.2614 91 91.5 91C88.7386 91 87 89.3333 87 86C87 82.8219 88.7386 81 91.5 81C94.2614 81 96 83.2386 96 86Z" fill="#FFBC85"/>
<path opacity="0.7" d="M94 121.5C94 123.5 92.3333 125.5 92.5 124.5C93 121.5 93 121.5 92.5001 118.5L92.5 118.5C92.3395 117.537 94 119.5 94 121.5Z" fill="#FFEAD3"/>
<path d="M94 109C94 111 92.3333 113 92.5 112C93 109 93 109 92.5001 106L92.5 106C92.3395 105.037 94 107 94 109Z" fill="#FFEAD3"/>
<path d="M95 97.4928C95 99.6405 93 102 93.5 100.5C94 99 94 96 93.5 94.5C93 93 95 95.345 95 97.4928Z" fill="#FFEAD3"/>
<path d="M95 86C95 88 93.3333 90 93.5 89C94 86.0001 94 86 93.5001 83.0004L93.5 83C93.3395 82.037 95 84 95 86Z" fill="#FFEAD3"/>
<path d="M50.2781 80.1855C51.2781 82.1854 49.2781 87.4913 48.7781 86.9913C48.2781 86.4913 47.7781 83.1855 47.7781 80.1855C47.7781 79.2091 49.8415 79.3122 50.2781 80.1855Z" fill="#FFEAD3"/>
<path d="M20.5168 142.137C20.2163 141.767 20.2192 141.236 20.5236 140.869L36.2675 121.883C36.6547 121.416 37.366 121.396 37.785 121.834C39.3616 123.486 43.2195 127.411 48.5 132C52.1282 135.153 57.6824 139.379 59.7177 140.913C60.1531 141.241 60.2455 141.855 59.9279 142.298L42.2636 166.935C41.8792 167.471 41.09 167.495 40.6743 166.982L20.5168 142.137Z" fill="#002843"/>
<circle cx="72" cy="98" r="10" fill="#14BD5B"/>
<path d="M66.5 97L70.5 101L77 94.5" stroke="white" stroke-width="2"/>
</g>
</svg>
