<svg width="170" height="170" viewBox="0 0 170 170" fill="none" xmlns="http://www.w3.org/2000/svg">
<mask id="mask0" mask-type="alpha" maskUnits="userSpaceOnUse" x="0" y="0" width="170" height="170">
<circle cx="85" cy="85" r="85" fill="#C4C4C4"/>
</mask>
<g mask="url(#mask0)">
<circle cx="85" cy="85" r="80" fill="white"/>
<circle cx="85" cy="85" r="80" fill="#A1E3B2"/>
<circle cx="85" cy="85" r="65" fill="#78C28B"/>
<path d="M27.448 73.9999L30.8836 73.0028C30.8836 73.0028 41.3836 63.4616 44.0535 62.1233C47.8466 60.2221 54.9331 58.6877 54.9331 58.6877C54.9331 58.6877 58.9444 53.1913 60.6591 53.5342C62.0906 53.8205 64.0638 56.6604 62.9496 59.2603C62.0907 61.2644 59.6962 63.4666 57.2235 65.5589C53.7985 68.457 55.5776 66.8612 52.9999 68.5C59.4999 70 72.9999 69 80.9999 69.5C84.4194 69.5 86.9494 72.9588 84.2749 74.8844C82.6477 76.0559 73.7972 76.1217 72.4732 76.5C74.9732 76.5 87.2662 76 88.4999 76.5C91.4552 77.6977 90.9999 83 86.9999 83.5C89.9999 85 89.2728 89.0816 87.4999 90.5C84.9999 92.5 69.9999 93 67.9999 93C67.9999 93 78.9999 94 82.9999 96C84.798 96.899 84.8453 100.5 77.9999 100.5C71.1546 100.5 57.5 99.4999 57.5 99.4999L38.5 99.9999C35.4999 99.9999 32.6452 99.1452 31.4999 98C29.6489 97.5541 28.4999 97.4999 28.4999 97.4999L27.448 73.9999Z" fill="#E9A66F"/>
<path d="M27.448 73.9999C27.448 73.9999 30.0526 73.0635 30.876 73.0169C30.876 75.1856 31.8648 77.0393 32.7765 78.5415C33.8762 80.3535 36.1746 79.7536 37.9917 79.116C40.5109 78.2321 43.2511 77.6575 46.1255 74.2578C47.6521 72.4523 49.0054 62.731 49.0054 60.2441C49.7404 59.9624 51.051 59.6806 51.051 59.6806C51.051 59.6806 59.6962 63.4666 57.2235 65.5589C53.7985 68.457 55.5776 66.8612 52.9999 68.5C59.4999 70 72.9999 69 80.9999 69.5C84.4194 69.5 86.9494 72.9588 84.2749 74.8844C82.6477 76.0559 73.7972 76.1217 72.4732 76.5C74.9732 76.5 87.2662 76 88.4999 76.5C91.4552 77.6977 90.9999 83 86.9999 83.5C89.9999 85 89.2728 89.0816 87.4999 90.5C84.9999 92.5 69.9999 93 67.9999 93C67.9999 93 78.9999 94 82.9999 96C84.798 96.899 84.8453 100.5 77.9999 100.5C71.1546 100.5 57.5 99.4999 57.5 99.4999L38.5 99.9999C35.4999 99.9999 32.6452 99.1452 31.4999 98C29.6489 97.5541 28.4999 97.4999 28.4999 97.4999L27.448 73.9999Z" fill="#D7955F"/>
<path d="M22.0291 74.9476C22.002 74.4095 22.406 73.9467 22.9428 73.9009L26.9042 73.5629C27.4798 73.5138 27.9771 73.9612 27.989 74.5388L28.329 91.1229C28.3389 91.6064 28.0014 92.0278 27.5273 92.1235L24.0796 92.8201C23.4803 92.9412 22.9136 92.5009 22.8828 91.8902L22.0291 74.9476Z" fill="#F4F4F4"/>
<path d="M-1.5 75.5L22.4838 73.8375L23.0045 101.97L-8 103.5L-1.5 75.5Z" fill="#001D30"/>
<path d="M122 89.5L149 129C149 129 149.499 129 149.789 128.709C150.048 128.451 150.074 128.07 150.074 127.941C150.074 98.9115 150 52 150 52L141.792 41.3883L122 89.5Z" fill="#DCC368"/>
<path d="M49.1045 113.574C48.6396 112.912 49.1136 112 49.9231 112H138.553C138.879 112 139.185 112.159 139.372 112.426L149.896 127.426C150.36 128.088 149.886 129 149.077 129H60.4466C60.1206 129 59.8152 128.841 59.628 128.574L49.1045 113.574Z" fill="#BEA54D"/>
<rect x="51.4663" y="41.5" width="90.0336" height="74" rx="0.5" fill="#FBE289" stroke="#DCC268"/>
<g style="mix-blend-mode:multiply">
<path d="M95.9759 129H116L106.024 116H86L95.9759 129Z" fill="#FF6B00"/>
</g>
<rect x="125.42" y="62.2341" width="29.0486" height="51.0882" rx="2.5" transform="rotate(82.5469 125.42 62.2341)" fill="white" stroke="#DCC268"/>
<path d="M100.5 70C99.1193 70 98 71.567 98 73.5C98 75.433 99.1193 77 100.5 77C101.881 77 103 75.433 103 73.5C103 71.567 101.881 70 100.5 70Z" fill="#CCCCCC"/>
<path d="M111.5 70C110.119 70 109 71.567 109 73.5C109 75.433 110.119 77 111.5 77C112.881 77 114 75.433 114 73.5C114 71.567 112.881 70 111.5 70Z" fill="#CCCCCC"/>
<path d="M117.717 78.0147C117.498 77.9636 117.28 78.0488 117.108 78.219C114.268 81.1305 109.867 82.6969 106.558 82.6969L105.997 82.6969L105.435 82.6969C102.126 82.6969 97.7255 81.1305 94.8853 78.219C94.7292 78.0488 94.4951 77.9807 94.2766 78.0147C94.0426 78.0658 93.9333 78.3382 94.0426 78.5596C96.4771 83.1566 100.972 86 105.856 86L105.997 86L106.137 86C111.022 86 115.516 83.1566 117.951 78.5596C118.076 78.3552 117.951 78.0658 117.717 78.0147Z" fill="#CCCCCC"/>
<rect x="86" y="41" width="20" height="75" fill="#FF6B00"/>
<mask id="mask1" mask-type="alpha" maskUnits="userSpaceOnUse" x="26" y="71" width="64" height="48">
<path d="M26.4479 92L29.8835 91.0028C29.8835 91.0028 40.3835 81.4616 43.0535 80.1233C46.8465 78.2221 53.933 76.6877 53.933 76.6877C53.933 76.6877 57.9443 71.1913 59.6591 71.5342C61.0906 71.8206 63.0637 74.6604 61.9495 77.2603C61.0906 79.2644 58.6962 81.4667 56.2235 83.559C52.7985 86.457 54.5776 84.8613 51.9999 86.5C58.4999 88 72.4847 86.4548 80.8432 86.1437C85.5393 85.6406 86.2778 89.9544 83.3813 91.4854C80.4848 93.0165 61.4829 93.8996 61.0673 94.5526C61.3641 95.4431 66.3313 95.4187 69.9124 95.4431C77.3922 95.0869 85.1991 94.8009 87.4839 95.4431C90.5537 96.3058 89.9999 101.295 85.9999 101.795C88.9999 103.295 87.5658 106.463 85.4062 106.96C82.4211 107.646 72.2115 109.31 64.8072 109.69C61.5244 109.859 61.1584 110.481 61.3868 110.903C61.6151 111.326 76.8295 111.458 80.8432 113.237C82.6812 114.052 83.3979 118.634 78.0838 118.551C72.7697 118.467 64.9386 117.574 56.4999 117.5C48.3704 119.607 37.9926 117.879 37.9926 117.879C33.0422 117.879 30.9039 116.072 29.7587 114.927C27.9076 114.481 27.4999 115.5 27.4999 115.5L26.4479 92Z" fill="#FFBC85"/>
</mask>
<g mask="url(#mask1)">
<rect x="-5.75195" y="53.5021" width="122.171" height="81.8424" fill="#FFBC85"/>
<path d="M60.9558 109.421C64.3324 109.08 73.1117 108.573 74.1474 107.018C75.8725 104.428 74.5878 103.888 78.5241 103.253C79.4614 103.102 80.6071 102.838 82.1348 102.838C83.6625 102.838 85.2673 102.677 87.4854 102.307L89.0209 103.888L90.9107 107.018L81.8464 122.577C81.8464 122.577 49.266 125.874 56.0171 117.882C59.7999 113.404 58.5541 109.663 60.9558 109.421Z" fill="#E9A66F" fill-opacity="0.8"/>
<path d="M63.6048 92.9496C69.1048 92.4496 72.1384 92.2067 77.5405 91.3756C78.7842 91.1842 76.8594 89.7643 79.0651 87.8084C82.1031 86.0605 82.0001 89 84.588 87.1854C84.588 87.1854 87.4502 92.088 82.3884 93.1337C79.0226 93.4208 76.9099 93.6225 72.0437 94.0095C65.8782 94.5 61.0001 94.5 61.0001 94.5C61.0001 94.5 60.1961 93.2595 63.6048 92.9496Z" fill="#E9A66F"/>
<path d="M63.9168 101.143C68.6683 101.143 76.0609 100.851 80.5088 100.544C82.8953 100.379 80.5518 99.3687 82.5878 97.1853C84.6238 95.0019 87.1059 96.7162 87.5 98.5C92 98.5 90 101.5 90 101.5L85.9958 101.803C85.9958 101.803 83.3386 101.74 78.622 102.081C73.9053 102.422 70.3893 102.83 65.9331 102.734C63.004 102.672 63.2178 102.734 61.478 102.734C60.1986 102.734 60.0786 101.143 63.9168 101.143Z" fill="#E9A66F"/>
<path d="M83.9393 88.9046C84.0503 90.2131 82.6803 91.0154 81.4503 91.0154C80.2204 91.0154 78.6764 90.3558 78.6764 89.2678C78.6764 88.1798 80.3586 86.976 81.5885 86.976C82.8184 86.976 83.8283 87.5961 83.9393 88.9046Z" fill="#FFD5A7"/>
<path d="M88.4523 98.52C88.4523 99.9107 87.1228 100.614 85.8929 100.614C84.663 100.614 82.5751 100.07 82.5192 98.52C82.4609 96.9077 84.7793 96.3096 86.0092 96.3096C87.2392 96.3096 88.4523 97.1292 88.4523 98.52Z" fill="#FFD5A7"/>
<path d="M86.663 103.845C86.9886 105.384 85.9698 106.159 84.7689 106.331C83.2794 106.544 81.8429 106.054 81.6317 104.792C81.4726 103.841 82.7471 102.763 84.1769 102.572C85.5082 102.394 86.3375 102.306 86.663 103.845Z" fill="#FFD5A7"/>
<path d="M81.4294 115.77C81.4294 117.161 80.4323 117.74 79.2024 117.74C77.9725 117.74 76.3281 116.742 76.3281 115.654C76.3281 114.566 77.8138 113.597 79.2024 113.739C80.3735 113.858 81.4294 114.379 81.4294 115.77Z" fill="#FFD5A7"/>
</g>
<path d="M59.2293 73.1641C58.6189 74.9415 54.1431 76.9809 54.1485 76.3867C54.1539 75.7924 55.9582 73.4316 57.7571 71.665C58.3426 71.0901 59.4958 72.3881 59.2293 73.1641Z" fill="#FFD5A7"/>
<path d="M23.0335 92.4972C23.0133 91.966 23.4122 91.512 23.9415 91.4635L27.9486 91.0963C28.5199 91.044 29.0179 91.4819 29.0392 92.0552L29.9617 116.963C29.9827 117.529 29.5292 118 28.9624 118H24.9629C24.4254 118 23.984 117.575 23.9636 117.038L23.0335 92.4972Z" fill="white"/>
<path d="M-0.5 93.5L23.5 91.5L24.5 120.5L3 121.5L-0.5 93.5Z" fill="#033C62"/>
</g>
</svg>
